<?xml version="1.0" encoding="UTF-8" standalone="no"?>
<!-- Created with Inkscape (http://www.inkscape.org/) -->

<svg
   width="1024"
   height="1024"
   viewBox="0 0 270.93333 270.93333"
   version="1.1"
   id="svg1"
   inkscape:version="1.3 (0e150ed6c4, 2023-07-21)"
   sodipodi:docname="icon.svg"
   xml:space="preserve"
   inkscape:export-filename="icon.png"
   inkscape:export-xdpi="96"
   inkscape:export-ydpi="96"
   xmlns:inkscape="http://www.inkscape.org/namespaces/inkscape"
   xmlns:sodipodi="http://sodipodi.sourceforge.net/DTD/sodipodi-0.dtd"
   xmlns="http://www.w3.org/2000/svg"
   xmlns:svg="http://www.w3.org/2000/svg"><sodipodi:namedview
     id="namedview1"
     pagecolor="#ffffff"
     bordercolor="#000000"
     borderopacity="0.25"
     inkscape:showpageshadow="2"
     inkscape:pageopacity="0.0"
     inkscape:pagecheckerboard="0"
     inkscape:deskcolor="#d1d1d1"
     inkscape:document-units="mm"
     inkscape:zoom="0.25478395"
     inkscape:cx="-1153.9188"
     inkscape:cy="1293.2526"
     inkscape:window-width="2558"
     inkscape:window-height="1360"
     inkscape:window-x="1273"
     inkscape:window-y="0"
     inkscape:window-maximized="0"
     inkscape:current-layer="layer1" /><defs
     id="defs1" /><g
     inkscape:label="Layer 1"
     inkscape:groupmode="layer"
     id="layer1"><g
       id="g11"><path
         style="fill:#0ea5e9;fill-opacity:1;stroke:none;stroke-width:0.0425693;stroke-linecap:round;stroke-linejoin:round"
         d="m 84.818909,222.69329 c -7.64681,-0.85706 -16.431365,-2.97162 -22.717907,-5.4689 C 35.547168,206.67608 15.862384,184.42446 8.8375963,157.01579 -3.1224719,110.35077 25.321091,62.565443 72.211227,50.547625 114.90378,39.605674 159.05149,62.368429 175.5143,103.811 c 10.18823,25.64761 6.94752,56.26147 -8.42095,79.54815 -13.27173,20.10952 -34.0655,34.01393 -57.21111,38.25576 -8.20733,1.50413 -17.641919,1.91003 -25.063331,1.07838 z"
         id="path2" /><path
         style="fill:#f97316;fill-opacity:1;stroke:none;stroke-width:0.0425693;stroke-linecap:round;stroke-linejoin:round"
         d="m 168.26105,222.69329 c -7.64681,-0.85706 -16.43136,-2.97162 -22.718,-5.46899 C 118.98904,206.67599 99.304159,184.42437 92.279464,157.01579 80.319312,110.35077 108.76286,62.565443 155.65328,50.547625 198.34611,39.605674 242.49382,62.368429 258.95663,103.811 c 10.18823,25.64761 6.94752,56.26147 -8.42096,79.54807 -13.27172,20.1096 -34.06549,34.01392 -57.2111,38.25575 -8.20743,1.50413 -17.64202,1.91012 -25.06352,1.07847 z"
         id="path3" /><path
         id="path7"
         style="fill:#ffb366;fill-opacity:1;stroke:none;stroke-width:0.0425693;stroke-linecap:round;stroke-linejoin:round"
         d="m 135.44795,58.48398 c -34.45758,18.73366 -53.29225,59.03126 -43.16848,98.53115 6.10446,23.81817 21.78162,43.72994 43.20688,55.4633 12.55704,-6.86571 23.49223,-16.82373 31.607,-29.11928 15.36847,-23.28669 18.61002,-53.90213 8.42179,-79.54964 -7.96831,-20.05906 -22.4313,-35.72268 -40.06719,-45.32553 z" /></g></g></svg>
